<mxfile host="app.diagrams.net" modified="2023-04-04T13:36:12.494Z" agent="Mozilla/5.0 (Windows NT 10.0; Win64; x64) AppleWebKit/537.36 (KHTML, like Gecko) Chrome/111.0.0.0 Safari/537.36 Edg/111.0.1661.62" version="21.1.4" etag="CWzI5rMnYJZCS21tkprh" type="github">
  <diagram name="Trang-1" id="ALG1wTsqR0zM9VrJxIbI">
    <mxGraphModel>
      <root>
        <mxCell id="0" />
        <mxCell id="1" parent="0" />
      </root>
    </mxGraphModel>
  </diagram>
</mxfile>
